<svg xmlns="http://www.w3.org/2000/svg" width="2501" height="647" viewBox="0 0 2501 647">
  <g fill="#0091E2" transform="translate(.292 .159)">
    <path d="M1175.57738,188.570881 C1162.25071,188.154423 1151.42279,198.565884 1151.00633,211.476095 L1151.00633,331.416125 C1093.95152,285.605697 1010.24338,294.767783 964.43295,351.822589 C945.692321,375.56072 935.28086,404.71281 935.28086,435.114276 C934.031484,508.410961 992.335666,568.797435 1065.63235,570.04681 C1138.92904,571.296185 1199.31551,512.992004 1200.56488,439.695319 L1200.56488,213.141929 C1200.56488,206.478594 1198.06613,200.231717 1193.48509,195.650675 C1188.48759,191.069632 1182.24071,188.570881 1175.57738,188.570881 M1144.343,467.181576 C1136.01383,487.171581 1120.18841,502.997001 1100.1984,511.742629 C1079.37548,520.488256 1056.05381,520.488256 1035.23088,511.742629 C1015.24088,503.41346 999.831917,487.171581 991.502749,467.598034 C982.757121,447.191571 982.757121,423.869898 991.502749,403.046977 C999.831917,383.056972 1015.65734,367.231551 1035.23088,358.902382 C1056.05381,350.156755 1079.37548,350.156755 1100.1984,358.902382 C1120.18841,367.648009 1136.01383,383.47343 1144.343,403.463435 C1153.08862,423.45344 1153.08862,446.775112 1144.343,467.181576 M1452.52224,341.411128 C1400.88139,289.770282 1316.75679,289.770282 1265.11594,341.411128 C1240.12844,366.398634 1226.38531,400.131767 1226.38531,435.114276 C1225.13593,508.410961 1283.44011,568.797435 1356.7368,570.04681 C1430.03348,571.296185 1490.41996,512.992004 1491.66933,439.695319 L1491.66933,435.114276 C1491.66933,417.623022 1488.33766,400.548226 1481.67433,384.306347 C1475.01099,368.064468 1465.01599,353.488422 1452.52224,341.411128 M1435.44744,466.765117 C1431.28286,476.76012 1425.03598,485.505747 1417.53973,493.001999 C1410.04348,500.498251 1400.88139,506.745127 1391.30285,510.909712 C1370.47993,519.655339 1347.15825,519.655339 1326.33533,510.909712 C1306.34533,502.580543 1290.51991,486.338664 1282.19074,466.765117 C1273.44511,446.358654 1273.44511,423.036982 1282.19074,402.21406 C1290.51991,382.224055 1306.34533,366.815092 1326.33533,358.069465 C1347.15825,349.323838 1370.47993,349.323838 1391.30285,358.069465 C1401.29785,362.23405 1410.04348,368.480926 1417.53973,375.977178 C1425.03598,383.47343 1431.28286,392.635516 1435.44744,402.21406 C1444.19307,423.45344 1444.19307,446.775112 1435.44744,466.765117 M2000.998,326.835082 C2000.998,323.503415 2000.16508,320.171747 1998.91571,317.256538 C1997.66633,314.341329 1995.58404,311.842579 1993.50175,309.343828 C1991.41946,307.261536 1988.50425,305.179244 1985.58904,303.929868 C1982.67383,302.680493 1979.34216,301.847576 1976.01049,301.847576 C1971.42945,301.847576 1966.84841,303.096952 1962.68382,305.595702 L1821.08796,397.633017 L1821.08796,213.558387 C1821.08796,206.895052 1818.58921,200.648176 1814.00816,196.067133 C1809.42712,191.48609 1803.18024,188.570881 1796.51691,188.570881 C1782.77378,188.570881 1771.94586,199.398801 1771.5294,213.141929 L1771.5294,542.560553 C1771.5294,549.223888 1774.02815,555.470765 1778.6092,560.051807 C1783.19024,565.049309 1789.43711,567.548059 1796.10045,567.548059 C1802.76378,567.548059 1809.01066,565.049309 1813.5917,560.051807 C1818.17275,555.470765 1821.08796,549.223888 1820.6715,542.560553 L1820.6715,457.186573 L1849.40713,438.445944 L1958.9357,561.301183 C1963.51674,565.465767 1969.34716,567.964518 1975.59404,567.548059 C1978.9257,567.548059 1982.25737,567.131601 1985.17258,565.465767 C1988.08779,564.216392 1990.58654,562.550558 1993.08529,560.051807 C1995.16758,557.553057 1997.24988,555.054306 1998.49925,552.139097 C1999.74863,549.223888 2000.58154,545.892221 2000.58154,542.560553 C2000.58154,536.313676 1998.08279,530.0668 1993.91821,525.485757 L1892.30235,410.959687 L1991.41946,346.408629 C1998.08279,342.244045 2001.41446,334.747793 2000.998,326.835082 M1589.95352,375.977178 C1597.44978,368.480926 1606.61186,362.23405 1616.60686,358.069465 C1627.01832,353.904881 1637.84624,351.40613 1649.09062,351.40613 C1659.08562,351.40613 1668.66417,353.071964 1677.82625,356.403632 C1686.98834,360.151757 1695.73397,365.149259 1703.23022,371.812594 C1707.81126,375.56072 1713.64168,377.226553 1719.4721,377.226553 C1726.13543,377.643012 1732.79877,375.144261 1737.37981,370.14676 C1741.96085,365.565717 1744.4596,358.902382 1744.4596,352.239047 C1744.4596,345.159254 1741.54439,338.07946 1735.71398,333.498417 C1711.97585,312.259037 1681.15792,300.598201 1649.09062,301.431118 C1575.79394,301.431118 1516.24038,360.984674 1516.24038,434.281359 C1516.24038,507.578044 1575.37748,566.715142 1648.2577,567.131601 C1680.325,567.131601 1711.14293,555.887223 1735.29752,535.064301 C1740.29502,530.483258 1743.21023,523.819923 1743.21023,516.74013 C1743.62669,503.41346 1733.21523,492.585541 1720.30501,492.169082 L1718.63918,492.169082 C1712.80876,492.169082 1707.3948,493.834916 1702.81376,497.166583 C1695.31751,503.829918 1686.98834,508.82742 1677.82625,512.575546 C1668.66417,515.907213 1658.66917,517.573047 1649.09062,517.573047 C1637.84624,517.573047 1627.01832,515.490755 1616.60686,510.909712 C1606.61186,506.745127 1597.86623,500.498251 1589.95352,493.001999 C1557.46977,460.518241 1557.46977,408.044478 1589.53706,375.56072 C1589.95352,376.393637 1589.95352,376.393637 1589.95352,375.977178 M2492.83542,318.922372 C2487.83791,314.341329 2482.42395,311.009662 2476.17708,308.92737 C2469.09728,306.428619 2461.60103,304.762785 2454.10478,303.929868 C2446.60853,303.096952 2439.11228,302.680493 2431.61603,302.680493 C2416.62352,302.680493 2401.21456,305.179244 2387.05497,310.593203 C2372.89539,315.590705 2359.98517,323.086957 2348.32434,332.249042 L2348.32434,327.251541 C2347.90788,313.508412 2336.24704,303.096952 2322.50391,303.51341 C2309.57656,303.944678 2299.19705,314.324183 2298.76578,327.251541 L2298.76578,543.39347 C2299.18224,557.136598 2310.84308,567.548059 2324.58621,567.131601 C2337.51356,566.700333 2347.89307,556.320828 2348.32434,543.39347 L2348.32434,435.530735 C2348.32434,424.286357 2350.40663,413.458437 2354.98767,403.046977 C2359.15226,393.051974 2364.98268,384.306347 2372.89539,376.810095 C2380.39164,369.313843 2389.55372,363.066967 2399.13227,358.902382 C2409.54373,354.737798 2420.37165,352.239047 2431.61603,352.239047 C2442.8604,352.239047 2453.68832,354.321339 2464.09978,358.069465 C2467.43145,359.735299 2470.76312,360.568216 2474.51124,360.568216 C2477.84291,360.568216 2481.17458,360.151757 2484.08979,358.485924 C2487.005,357.236548 2489.50375,355.570715 2492.0025,353.071964 C2494.08479,350.989672 2496.16708,348.074463 2497.41646,345.159254 C2498.66583,342.244045 2499.49875,338.912377 2499.49875,335.58071 C2499.91521,329.333833 2497.41646,323.503415 2492.83542,318.922372 M2262.95036,384.306347 C2241.71098,335.164251 2193.4018,303.096952 2140.09512,302.680493 C2066.79843,302.680493 2007.66134,361.817591 2007.24488,435.114276 C2007.24488,508.410961 2066.79843,567.964518 2140.09512,567.964518 C2171.74596,567.964518 2202.56388,556.72014 2226.71847,535.897218 L2227.55139,535.064301 C2229.63368,533.398467 2231.71598,531.316175 2232.96535,528.817425 C2240.87806,517.156588 2237.96285,501.747626 2226.71847,493.834916 C2217.13993,487.588039 2204.64618,488.837415 2196.31701,496.750125 C2195.48409,497.583042 2192.98534,499.665334 2192.98534,500.081792 L2192.56888,500.498251 C2185.48909,506.328669 2177.57638,511.32617 2168.83075,514.241379 C2159.66867,517.573047 2150.09012,519.238881 2140.09512,518.822422 C2130.93303,518.822422 2122.18741,517.573047 2113.44178,514.657838 C2105.11261,511.742629 2097.1999,507.994503 2090.12011,502.580543 C2083.04031,497.583042 2076.79344,491.336165 2071.79594,484.256372 C2066.38198,477.176578 2062.63385,468.84741 2060.1351,460.518241 L2247.5414,460.518241 C2254.20473,460.518241 2260.45161,458.01949 2265.03265,453.438447 C2270.03015,448.857405 2272.5289,442.610528 2272.11244,435.947193 C2272.5289,418.03948 2269.19723,400.548226 2262.95036,384.306347 M2060.1351,410.959687 C2062.63385,402.21406 2066.38198,394.301349 2071.79594,387.221556 C2076.79344,380.141762 2083.04031,373.894886 2090.12011,368.897385 C2097.1999,363.899883 2105.11261,359.735299 2113.44178,356.82009 C2121.77095,353.904881 2130.93303,352.655506 2139.67866,352.655506 C2148.42429,352.655506 2157.58637,353.904881 2165.91554,356.82009 C2182.57388,362.23405 2197.14993,373.061969 2207.56139,387.221556 C2212.97535,394.301349 2216.72347,402.630518 2219.63868,410.959687 L2060.1351,410.959687 Z M2408.29435,531.732634 C2398.71581,531.732634 2391.21956,539.645344 2391.21956,549.223888 C2391.21956,558.802432 2399.13227,566.298684 2408.71081,566.298684 C2418.28936,566.298684 2425.78561,558.385974 2425.78561,549.223888 C2425.78561,539.228886 2417.8729,531.732634 2408.29435,531.732634 Z M2408.29435,562.550558 C2400.7981,562.967016 2394.55122,557.136598 2394.13477,549.640346 C2393.71831,542.144095 2399.54873,535.897218 2407.04498,535.48076 C2414.54123,535.064301 2420.78811,540.894719 2421.20456,548.390971 L2421.20456,549.223888 C2421.62102,556.303681 2415.7906,562.550558 2408.71081,562.550558 L2408.29435,562.550558 Z"/>
    <path d="M2412.45894,549.223888 C2414.54123,548.80743 2415.7906,547.141596 2415.7906,545.059304 C2415.7906,543.39347 2415.37415,542.144095 2414.12477,541.311178 C2412.45894,540.478261 2410.37665,540.061802 2408.29435,540.061802 C2406.21206,540.061802 2403.71331,540.061802 2401.63102,540.478261 L2401.63102,557.553057 L2405.37914,557.553057 L2405.37914,550.889722 L2407.04498,550.889722 C2409.12727,550.889722 2410.37665,551.722639 2410.7931,553.388472 C2411.20956,554.637848 2411.62602,556.303681 2412.04248,557.553057 L2416.20706,557.553057 C2415.37415,556.303681 2414.95769,554.637848 2414.95769,553.388472 C2415.37415,551.722639 2414.12477,550.056805 2412.45894,549.223888 M2407.46144,547.974513 L2405.37914,547.974513 L2405.37914,542.977011 L2407.46144,542.977011 C2409.96019,542.977011 2411.20956,544.226387 2411.20956,545.475762 C2411.62602,547.141596 2409.54373,548.390971 2407.46144,547.974513 M889.88689,244.376312 C887.388139,242.29402 864.899384,225.219224 816.590205,225.219224 C804.096452,225.219224 791.18624,226.468599 778.692487,228.550891 C769.530401,164.83275 716.64018,134.014826 714.557888,132.348992 L701.647676,124.85274 L693.318507,136.930035 C682.907046,153.171914 674.994336,171.496085 670.413293,190.236715 C661.667666,226.468599 667.081626,260.618191 685.405797,289.770282 C663.3335,302.264035 627.518074,305.179244 620.021822,305.595702 L28.6508412,305.595702 C13.2418791,305.595702 0.748125937,318.089455 0.748125937,333.498417 C-0.0847909379,385.139264 8.66083625,436.78011 26.5685491,485.505747 C46.9750125,538.812427 77.3764784,578.375979 116.523572,602.530568 C160.668166,629.600366 232.715476,645.009329 313.924871,645.009329 C350.573213,645.009329 387.221556,641.677661 423.45344,635.014326 C473.844911,625.852241 522.15409,608.360986 566.715142,582.957021 C603.363485,561.717641 636.263701,534.647843 664.166417,502.997001 C711.22622,450.10678 739.128936,390.969682 759.535399,338.495919 L767.864568,338.495919 C819.088956,338.495919 850.739797,318.089455 868.231051,300.598201 C879.891887,289.770282 888.637515,276.443612 894.884391,261.451108 L898.632517,250.623188 L889.88689,244.376312 Z"/>
    <path d="M83.623355,288.520906 L162.750458,288.520906 C166.498584,288.520906 169.830252,285.605697 169.830252,281.441113 L169.830252,210.643178 C169.830252,206.895052 166.915042,203.563385 162.750458,203.563385 L83.623355,203.563385 C79.8752291,203.563385 76.5435616,206.478594 76.5435616,210.643178 L76.5435616,281.441113 C76.96002,285.605697 79.8752291,288.520906 83.623355,288.520906 Z M192.735466,288.520906 L271.862569,288.520906 C275.610695,288.520906 278.942362,285.605697 278.942362,281.441113 L278.942362,210.643178 C278.942362,206.895052 276.027153,203.563385 271.862569,203.563385 L192.735466,203.563385 C188.98734,203.563385 185.655672,206.478594 185.655672,210.643178 L185.655672,281.441113 C186.072131,285.605697 188.98734,288.520906 192.735466,288.520906 M303.929868,288.520906 L383.056972,288.520906 C386.805097,288.520906 390.136765,285.605697 390.136765,281.441113 L390.136765,210.643178 C390.136765,206.895052 387.221556,203.563385 383.056972,203.563385 L303.929868,203.563385 C300.181742,203.563385 296.850075,206.478594 296.850075,210.643178 L296.850075,281.441113 C296.850075,285.605697 299.765284,288.520906 303.929868,288.520906 Z M413.458437,288.520906 L492.585541,288.520906 C496.333667,288.520906 499.665334,285.605697 499.665334,281.441113 L499.665334,210.643178 C499.665334,206.895052 496.750125,203.563385 492.585541,203.563385 L413.458437,203.563385 C409.710312,203.563385 406.378644,206.478594 406.378644,210.643178 L406.378644,281.441113 C406.378644,285.605697 409.710312,288.520906 413.458437,288.520906 Z M192.735466,187.321506 L271.862569,187.321506 C275.610695,187.321506 278.942362,183.989838 278.942362,180.241712 L278.942362,109.443778 C278.942362,105.695652 276.027153,102.363985 271.862569,102.363985 L192.735466,102.363985 C188.98734,102.363985 185.655672,105.279194 185.655672,109.443778 L185.655672,180.241712 C186.072131,183.989838 188.98734,187.321506 192.735466,187.321506 M303.929868,187.321506 L383.056972,187.321506 C386.805097,187.321506 390.136765,183.989838 390.136765,180.241712 L390.136765,109.443778 C390.136765,105.695652 387.221556,102.363985 383.056972,102.363985 L303.929868,102.363985 C300.181742,102.363985 296.850075,105.279194 296.850075,109.443778 L296.850075,180.241712 C296.850075,183.989838 299.765284,187.321506 303.929868,187.321506 M413.458437,187.321506 L492.585541,187.321506 C496.333667,187.321506 499.665334,183.989838 499.665334,180.241712 L499.665334,109.443778 C499.665334,105.695652 496.333667,102.363985 492.585541,102.363985 L413.458437,102.363985 C409.710312,102.363985 406.378644,105.279194 406.378644,109.443778 L406.378644,180.241712 C406.378644,183.989838 409.710312,187.321506 413.458437,187.321506 M413.458437,85.7056472 L492.585541,85.7056472 C496.333667,85.7056472 499.665334,82.7904381 499.665334,78.6258537 L499.665334,7.82791937 C499.665334,4.07979344 496.333667,0.748125937 492.585541,0.748125937 L413.458437,0.748125937 C409.710312,0.748125937 406.378644,3.663335 406.378644,7.82791937 L406.378644,78.6258537 C406.378644,82.3739797 409.710312,85.7056472 413.458437,85.7056472 M523.819923,288.520906 L602.947026,288.520906 C606.695152,288.520906 610.02682,285.605697 610.02682,281.441113 L610.02682,210.643178 C610.02682,206.895052 607.111611,203.563385 602.947026,203.563385 L523.819923,203.563385 C520.071797,203.563385 516.74013,206.478594 516.74013,210.643178 L516.74013,281.441113 C517.156588,285.605697 520.071797,288.520906 523.819923,288.520906"/>
  </g>
</svg>
