<svg xmlns="http://www.w3.org/2000/svg" width="465" height="88" viewBox="0 0 465 88">
  <g fill="none" fill-rule="evenodd" transform="translate(1 1)">
    <path fill="#E6E7E8" fill-rule="nonzero" d="M70.4,85 L14.4,85 C6.6,85 0.2,78.6 0.2,70.8 L0.2,14.8 C0.2,7 6.6,0.6 14.4,0.6 L70.4,0.6 C78.2,0.6 84.6,7 84.6,14.8 L84.6,70.8 C84.6,78.6 78.2,85 70.4,85 Z"/>
    <path fill="#12A7DD" fill-rule="nonzero" d="M48.8,72.4 C47.8,70.1 46.7,67.3 45.7,64.7 C43.2,58.3 52.7,57.3 52.7,57.3 C52.7,57.3 73,56.3 74.2,32.7 C74.2,32.7 67.7,39.3 62,38.5 C56.3,37.7 48.2,33.8 41.6,45.7 L41.6,45.7 C35,33.8 26.9,37.7 21.2,38.5 C15.5,39.3 9,32.7 9,32.7 C10.2,56.3 30.5,57.3 30.5,57.3 C30.5,57.3 39.3,58.3 37.5,64.7 C36.7,67.6 35.9,70.1 35,72.3 L36.8,75.5 L39.2,77.4 L41.5,78 L43,78 L46,76 L48.1,73.2 L48.8,72.4 Z"/>
    <path fill="#37B7EA" fill-rule="nonzero" d="M61.9,38.5 C56.2,37.7 48.1,33.8 41.5,45.7 C40.5,44 39.5,42.6 38.5,41.5 C38.9,50.2 40.3,69.7 45.5,76.2 L45.8,76 L47.9,73.2 L48.6,72.5 C47.6,70.2 46.5,67.4 45.5,64.8 C43,58.4 52.5,57.4 52.5,57.4 C52.5,57.4 72.8,56.4 74,32.8 C74.1,32.7 67.6,39.3 61.9,38.5 Z"/>
    <path stroke="#3A4E55" stroke-linecap="round" stroke-linejoin="round" stroke-width="2.474" d="M41.6 45.7C35 33.8 26.9 37.7 21.2 38.5 15.5 39.3 9 32.7 9 32.7 10.2 56.3 30.5 57.3 30.5 57.3 30.5 57.3 39.3 58.3 37.5 64.7 36.7 67.6 35.9 70.1 35 72.3M41.6 45.7C48.2 33.8 56.3 37.7 62 38.5 67.7 39.3 74.2 32.7 74.2 32.7 73 56.3 52.7 57.3 52.7 57.3 52.7 57.3 43.2 58.3 45.7 64.7 46.7 67.3 47.8 70 48.8 72.4"/>
    <path fill="#95D8F2" fill-rule="nonzero" d="M0.7,76.4 C0.7,76.4 9.3,72.3 16.9,67.9 C17.3,67.7 22,67.9 22,67.9 C22,67.9 25.8,67.9 26.1,67.9 C26.4,67.9 31.9,71.2 31.9,71.2 C31.9,71.2 37.5,73.8 38.6,74.1 C39.6,74.4 48.2,73.2 48.2,73.2 L54.5,69.6 L59.5,67.9 L69.3,69.6 C69.3,69.6 91.4,74.9 82.8,77.9 C82.3,78.1 78.3,82.5 77.9,82.9 C77.5,83.2 64.8,86.3 64.8,86.3 L39.1,86.3 L7.5,83.8 L0.7,76.4 Z"/>
    <rect width="16" height="14.2" x="16.21" y="12.501" fill="#37B7EA" fill-rule="nonzero" stroke="#3A4E55" stroke-width="1.276" transform="rotate(-16.965 24.21 19.601)"/>
    <path fill="#E0E1E2" fill-rule="nonzero" d="M45,18.2 C45,18.2 40.8,31.8 31.8,30.4 L45.8,32.7 L47.9,18.6 L45,18.2 Z"/>
    <rect width="16" height="14.2" x="16.21" y="12.501" fill="#BCBEC0" fill-rule="nonzero" stroke="#3A4E55" stroke-width="1.654" transform="rotate(-16.965 24.21 19.601)"/>
    <rect width="16" height="14.2" x="52.399" y="14.196" fill="#BCBEC0" fill-rule="nonzero" stroke="#3A4E55" stroke-width="1.654" transform="rotate(-4.029 60.398 21.296)"/>
    <rect width="16.001" height="14.201" x="30.995" y="17.607" fill="#BCBEC0" fill-rule="nonzero" stroke="#3A4E55" stroke-width="1.654" transform="rotate(8.789 38.996 24.707)"/>
    <path stroke="#3A4E55" stroke-linecap="round" stroke-linejoin="round" stroke-width="2.474" d="M83.3,74.5 C73.1,74.5 73.1,67.9 62.8,67.9 C52.6,67.9 52.6,74.5 42.3,74.5 C32.1,74.5 32.1,67.9 21.8,67.9 C11.5,67.9 11.6,74.5 1.3,74.5"/>
    <g stroke="#3A4E55" stroke-width="1.276" transform="translate(56 18)">
      <line x1=".5" x2=".8" y1=".4" y2="6.6"/>
      <line x1="4.2" x2="4.6" y1=".2" y2="6.4"/>
      <line x1="8" x2="8.3" y2="6.2"/>
    </g>
    <g stroke="#3A4E55" stroke-width="1.276" transform="translate(34 21)">
      <line x1="1.4" x2=".6" y1=".3" y2="6.5"/>
      <line x1="5.1" x2="4.3" y1=".9" y2="7"/>
      <line x1="8.9" x2="8" y1="1.4" y2="7.5"/>
    </g>
    <g stroke="#3A4E55" stroke-width="1.276" transform="translate(19 15)">
      <line x1=".4" x2="2.1" y1="2.7" y2="8.7"/>
      <line x1="4.1" x2="5.8" y1="1.7" y2="7.7"/>
      <line x1="7.7" x2="9.4" y1=".7" y2="6.6"/>
    </g>
    <path stroke="#3A4E55" stroke-linecap="round" stroke-linejoin="round" stroke-width="2.285" d="M70.4,85 L14.4,85 C6.6,85 0.2,78.6 0.2,70.8 L0.2,14.8 C0.2,7 6.6,0.6 14.4,0.6 L70.4,0.6 C78.2,0.6 84.6,7 84.6,14.8 L84.6,70.8 C84.6,78.6 78.2,85 70.4,85 Z"/>
    <path fill="#3A4E55" fill-rule="nonzero" d="M145.2 27.9L145.2 59.2C145.2 66.8 139 73 131.6 73 124 73 117.8 66.8 117.8 59.2L117.8 27.9C117.8 20.4 124 14.3 131.6 14.3 139 14.3 145.2 20.4 145.2 27.9zM137.6 27.9C137.6 24.6 134.9 21.8 131.5 21.8 128.1 21.8 125.3 24.5 125.3 27.9L125.3 59.2C125.3 62.6 128 65.4 131.5 65.4 134.8 65.4 137.6 62.7 137.6 59.2L137.6 27.9zM193.6 27.9L193.6 33.6C193.6 41.2 187.4 47.4 180 47.4L173.8 47.4 173.8 71.1C173.8 72 173 73 171.9 73L168 73C167.1 73 166.1 72.1 166.1 71.1L166.1 47.4 166.1 39.8 166.1 16.2C166.1 15.1 167 14.3 168 14.3L179.9 14.3C187.4 14.3 193.6 20.4 193.6 27.9zM186 27.9C186 24.6 183.3 21.8 179.9 21.8L173.7 21.8 173.7 39.7 179.9 39.7C183.2 39.7 186 37 186 33.5L186 27.9zM218.7 21.9L218.7 39.8 229 39.8C230.1 39.8 230.9 40.6 230.9 41.7L230.9 45.5C230.9 46.6 230.1 47.4 229 47.4L218.7 47.4 218.7 65.4 229 65.4C230.1 65.4 230.9 66.2 230.9 67.3L230.9 71.1C230.9 72.2 230.1 73 229 73L214.9 73C212.8 73 211.1 71.2 211.1 69.2L211.1 18.1C211.1 16 212.8 14.3 214.9 14.3L229 14.3C230.1 14.3 230.9 15.1 230.9 16.2L230.9 20C230.9 21.1 230.1 21.9 229 21.9L218.7 21.9 218.7 21.9z"/>
    <path fill="#036FA5" fill-rule="nonzero" d="M310.4 21.9L310.4 39.8 320.7 39.8C321.8 39.8 322.6 40.6 322.6 41.7L322.6 45.5C322.6 46.6 321.8 47.4 320.7 47.4L310.4 47.4 310.4 71.1C310.4 72.2 309.6 73 308.5 73L304.7 73C303.6 73 302.8 72.2 302.8 71.1L302.8 18.1C302.8 16 304.5 14.3 306.6 14.3L320.7 14.3C321.8 14.3 322.6 15.1 322.6 16.2L322.6 20C322.6 21.1 321.8 21.9 320.7 21.9L310.4 21.9 310.4 21.9zM370.2 28L370.2 71.1C370.2 72.2 369.4 73 368.3 73L364.5 73C363.4 73 362.6 72.2 362.6 71.1L362.6 47.5 350.4 47.5 350.4 71.1C350.4 72.2 349.6 73 348.5 73L344.7 73C343.6 73 342.8 72.2 342.8 71.1L342.8 28C342.8 20.5 349 14.4 356.6 14.4 364 14.4 370.2 20.6 370.2 28zM362.6 28C362.6 24.7 359.9 21.9 356.5 21.9 353.1 21.9 350.3 24.6 350.3 28L350.3 39.9 362.5 39.9 362.5 28 362.6 28zM418.2 28L418.2 71.1C418.2 72.2 417.4 73 416.3 73L412.5 73C411.4 73 410.6 72.2 410.6 71.1L410.6 47.5 398.4 47.5 398.4 71.1C398.4 72.2 397.6 73 396.5 73L392.7 73C391.6 73 390.8 72.2 390.8 71.1L390.8 28C390.8 20.5 397 14.4 404.6 14.4 412.1 14.4 418.2 20.6 418.2 28zM410.7 28C410.7 24.7 408 21.9 404.7 21.9 401.3 21.9 398.5 24.6 398.5 28L398.5 39.9 410.7 39.9 410.7 28zM456.4 31.9L456.4 27.9C456.4 24.6 453.7 21.8 450.3 21.8 447 21.8 444.3 24.5 444.3 27.9 444.3 29.4 444.3 29.4 444.7 29.9L461.2 51.7C464 55.5 464 55.5 464 59.3 464 66.8 457.8 72.9 450.4 72.9 442.9 72.9 436.8 66.7 436.8 59.3L436.8 55.3C436.8 54.2 437.6 53.4 438.7 53.4L442.5 53.4C443.6 53.4 444.4 54.2 444.4 55.3L444.4 59.3C444.4 62.6 447.1 65.4 450.4 65.4 453.7 65.4 456.5 62.7 456.5 59.3 456.5 57.8 456.5 57.8 456.1 57.3L439.6 35.5C436.8 31.7 436.8 31.7 436.8 27.9 436.8 20.4 443 14.3 450.4 14.3 457.9 14.3 464 20.5 464 27.9L464 31.9C464 33 463.2 33.8 462.1 33.8L458.3 33.8C457.2 33.8 456.4 33 456.4 31.9z"/>
    <path fill="#3A4E55" fill-rule="nonzero" d="M265.4,14.7 C263.2,14.7 261.1,15.2 259.2,16.2 L259.2,16 C259.2,15.1 258.4,14.1 257.3,14.1 L253.5,14.1 C252.4,14.1 251.6,15 251.6,16 L251.6,28.3 L251.6,41.7 L251.6,71 C251.6,71.9 252.4,72.9 253.5,72.9 L257.3,72.9 C258.4,72.9 259.2,72 259.2,71 L259.2,41.7 L259.2,28.3 C259.2,25 261.9,22.2 265.4,22.2 C268.7,22.2 271.5,24.9 271.5,28.3 L271.5,71 C271.5,71.9 272.3,72.9 273.4,72.9 L277.2,72.9 C278.3,72.9 279.1,72 279.1,71 L279.1,28.3 C279,20.9 272.9,14.7 265.4,14.7 Z"/>
  </g>
</svg>
