<svg xmlns="http://www.w3.org/2000/svg" width="110" height="32" viewBox="0 0 110 32">
  <g fill="none" fill-rule="evenodd">
    <path fill="#F6BD3A" d="M12.832,17.153 L16.892,14.797 L20.892,17.153 L16.892,19.459 L12.832,17.203 L12.832,17.153 Z M0.65,10.185 L16.9,0.96 L28.98,7.828 L24.98,14.796 L16.91,10.184 L4.73,17.102 L0.65,10.185 Z"/>
    <path fill="#EB8C23" d="M12.832,26.376 L12.832,21.764 L16.832,19.458 L20.892,17.152 L20.892,21.764 L16.892,24.07 L16.892,28.682 L12.832,31.038 L12.832,26.376 Z M12.832,17.153 L8.772,14.847 L4.712,17.103 L4.712,12.49 L16.892,5.572 L16.892,14.796 L12.832,17.153 Z M24.912,12.491 L24.912,10.185 L28.972,7.829 L29.022,12.441 L24.962,14.797 L24.912,12.491 Z"/>
    <path fill="#E35A2B" d="M8.77,28.582 L8.77,14.847 L12.77,12.591 L12.82,17.153 L16.88,19.409 L16.88,24.071 L12.82,21.915 L12.82,31.038 L8.77,28.582 Z M2.656,15.9 L0.65,14.697 L0.65,10.187 L4.71,12.493 L4.71,17.105 L2.656,15.9 Z M16.892,10.185 L16.892,5.573 L24.912,10.185 L24.962,14.797 L16.892,10.185 Z"/>
    <path fill="#EF6639" d="M36.825,11.778 L36.825,22.378 L34.962,22.378 L34.962,11.778 L31.342,11.778 L31.342,9.95 L40.442,9.95 L40.442,11.777 L36.825,11.778 Z M46.61,15.628 C46.7239909,16.0889866 46.7747893,16.5633291 46.761,17.038 L40.75,18.82 C40.797,19.27 40.784,19.087 40.925,19.407 C41.066,19.727 41.245,19.989 41.457,20.207 C41.669,20.425 41.907,20.567 42.157,20.667 C42.407,20.767 42.694,20.819 42.973,20.817 C43.373,20.817 43.721,20.752 44.046,20.622 C44.3861445,20.4832286 44.7054946,20.2981468 44.995,20.072 L46.077,21.242 C45.6768578,21.6282353 45.2072706,21.9352992 44.693,22.147 C44.183,22.36 43.575,22.4670307 42.866,22.4670307 C42.3321739,22.4691299 41.803709,22.3605086 41.314,22.148 C40.814,21.935 40.394,21.622 40.028,21.208 C39.662,20.794 39.372,20.286 39.158,19.682 C38.944,19.078 38.838,18.382 38.838,17.624 C38.838,16.832 38.938,16.124 39.14,15.531 C39.342,14.938 39.62,14.431 39.974,14.014 C40.3252056,13.608724 40.7653246,13.2900997 41.26,13.083 C41.7857657,12.8656651 42.3501265,12.7571473 42.919,12.764 C43.581,12.764 44.159,12.888 44.649,13.137 C45.139,13.386 45.549,13.723 45.873,14.137 C46.209978,14.5853287 46.4568642,15.0947224 46.6,15.637 L46.61,15.628 Z M44.863,16.048 C44.839,15.728 44.619,15.348 44.437,15.095 C44.2654717,14.8689987 44.0355563,14.6940555 43.772,14.589 C43.5,14.481 43.13,14.436 42.805,14.449 C42.205,14.476 41.505,14.687 41.173,15.149 C40.841,15.611 40.736,16.412 40.749,17.266 L44.863,16.048 Z M53.36,22.262 L53.36,16.992 C53.36,16.046 53.19,15.392 52.854,15.005 C52.518,14.618 52.047,14.437 51.454,14.437 C50.839,14.437 50.366,14.644 50.034,15.057 C49.702,15.47 49.537,16.057 49.537,16.813 L49.537,22.259 L47.7,22.259 L47.7,12.949 L49.527,12.949 L49.527,13.836 C49.764,13.493 50.092,13.236 50.512,13.038 C50.932,12.84 51.384,12.754 51.869,12.754 C52.957,12.754 53.782,13.104 54.344,13.801 C54.906,14.498 55.187,15.541 55.187,16.923 L55.187,22.263 L53.36,22.263 L53.36,22.262 Z M62.692,19.814 C62.692,20.334 62.594,20.769 62.399,21.118 C62.2133169,21.4570751 61.9484721,21.7462773 61.627,21.961 C61.307,22.174 60.927,22.328 60.527,22.421 C60.0929549,22.517164 59.6495666,22.5647897 59.205,22.5630486 C58.565,22.5630486 57.931,22.451 57.298,22.226 C56.7070838,22.0228389 56.1483871,21.7359132 55.639,21.374 L56.463,20 C56.8786847,20.2964033 57.3359803,20.5296005 57.82,20.692 C58.287,20.846 58.74,20.922 59.177,20.922 C60.312,20.922 60.88,20.579 60.88,19.892 C60.88,19.537 60.688,19.252 60.304,19.042 C59.92,18.832 59.39,18.592 58.716,18.342 C58.2799454,18.1809523 57.8561639,17.9884459 57.448,17.766 C57.1,17.57 56.815,17.361 56.596,17.136 C56.384782,16.9230851 56.2241521,16.6653937 56.126,16.382 C56.031,16.104 55.984,15.782 55.984,15.415 C55.984,15.001 56.061,14.635 56.214,14.315 C56.3645641,13.9996402 56.5897298,13.7257343 56.87,13.517 C57.154,13.304 57.49,13.144 57.87,13.037 C58.25,12.93 58.686,12.877 59.147,12.877 C59.747,12.877 60.309,12.972 60.859,13.161 C61.409,13.35 61.891,13.599 62.305,13.906 L61.52,15.3 C61.142,15.028 60.757,14.827 60.367,14.697 C59.977,14.567 59.567,14.502 59.107,14.502 C58.647,14.502 58.332,14.582 58.131,14.742 C57.9379739,14.8857316 57.8256465,15.1133621 57.829,15.354 C57.82793,15.467258 57.852188,15.5793232 57.9,15.682 C57.947,15.782 58.036,15.886 58.166,15.982 C58.3285902,16.1090274 58.5038512,16.2189426 58.689,16.31 C58.9697622,16.44993 59.2567234,16.5770605 59.549,16.691 L60.915,17.268 C61.2702094,17.4289399 61.6016381,17.6378914 61.9,17.889 C62.157707,18.1084785 62.3610287,18.3847086 62.494,18.696 C62.624,19.003 62.689,19.376 62.689,19.814 L62.692,19.814 Z M71.19,17.667 C71.19,18.437 71.084,19.125 70.87,19.734 C70.656,20.343 70.37,20.858 69.983,21.277 C69.6148536,21.6895248 69.1609055,22.016504 68.653,22.235 C68.153,22.455 67.589,22.563 66.985,22.563 C66.385,22.563 65.85,22.448 65.353,22.217 C64.8557701,21.9852032 64.4141396,21.6492912 64.058,21.232 C63.691,20.807 63.405,20.298 63.198,19.706 C62.991,19.114 62.898,18.452 62.898,17.719 C62.898,16.962 63.004,16.282 63.218,15.679 C63.432,15.076 63.724,14.564 64.096,14.144 C64.4553935,13.7292708 64.9043758,13.4016813 65.409,13.186 C65.922,12.968 66.459,12.858 67.049,12.858 C67.6174906,12.8532499 68.180308,12.971271 68.699,13.204 C69.2022408,13.430682 69.6525381,13.7600598 70.021,14.171 C70.394,14.585 70.683,15.091 70.891,15.688 C71.099,16.285 71.191,16.945 71.191,17.666 L71.19,17.667 Z M69.345,17.72 C69.345,16.762 69.145,16.002 68.715,15.44 C68.285,14.878 67.713,14.597 66.968,14.597 C66.3120406,14.5741688 65.6912035,14.8932943 65.328,15.44 C64.933,16.003 64.734,16.744 64.734,17.667 C64.734,18.697 64.947,19.479 65.374,20.017 C65.772245,20.5425002 66.3999217,20.8431145 67.059,20.824 C67.402,20.824 67.715,20.741 67.999,20.576 C68.2854211,20.407951 68.5331524,20.1813467 68.726,19.911 C68.9366919,19.6125033 69.0927755,19.2790058 69.187,18.926 C69.293,18.548 69.347,18.146 69.347,17.72 L69.345,17.72 Z M77.08,14.988 C76.8825805,14.8831129 76.6743616,14.7999595 76.459,14.74 C76.246,14.68 75.986,14.64 75.679,14.64 C75.099,14.64 74.649,14.84 74.331,15.243 C74.013,15.646 73.851,16.243 73.851,17.035 L73.851,22.357 L72.024,22.357 L72.024,13.043 L73.851,13.043 L73.851,13.93 C74.0799296,13.6081426 74.3804953,13.3438639 74.729,13.158 C75.1122463,12.9484039 75.5432308,12.8416052 75.98,12.848 C76.358,12.848 76.68,12.881 76.91,12.946 C77.1406733,13.0064063 77.3594386,13.1054762 77.557,13.239 L77.077,14.979 L77.08,14.988 Z"/>
    <path fill="#A6A7A9" d="M80.148,11.778 L80.148,15.025 L83.714,15.025 L83.714,16.852 L80.148,16.852 L80.148,22.369 L78.285,22.369 L78.285,9.95 L86.285,9.95 L86.285,11.777 L80.148,11.778 Z M86.588,22.368 L86.588,10.394 L88.415,9.436 L88.415,22.37 L86.588,22.368 Z M97.748,17.668 C97.748,18.438 97.641,19.126 97.428,19.735 C97.215,20.344 96.918,20.859 96.541,21.278 C96.1725651,21.6906431 95.7182649,22.01763 95.21,22.236 C94.7,22.456 94.146,22.564 93.542,22.564 C92.952,22.564 92.407,22.449 91.91,22.218 C91.413,21.987 90.982,21.658 90.615,21.233 C90.248,20.808 89.962,20.299 89.755,19.707 C89.548,19.115 89.455,18.453 89.455,17.72 C89.455,16.963 89.561,16.283 89.775,15.68 C89.989,15.077 90.281,14.565 90.653,14.145 C91.025,13.725 91.453,13.405 91.966,13.187 C92.479,12.969 93.016,12.859 93.606,12.859 C94.196,12.859 94.746,12.974 95.256,13.205 C95.7592408,13.431682 96.2095381,13.7610598 96.578,14.172 C96.951,14.586 97.24,15.092 97.448,15.689 C97.656,16.286 97.748,16.946 97.748,17.667 L97.748,17.668 Z M95.903,17.721 C95.903,16.763 95.703,16.003 95.273,15.441 C94.843,14.879 94.271,14.598 93.526,14.598 C92.828,14.598 92.281,14.878 91.886,15.441 C91.491,16.004 91.292,16.745 91.292,17.668 C91.292,18.698 91.505,19.48 91.932,20.018 C92.330245,20.5435002 92.9579217,20.8441145 93.617,20.825 C93.9469621,20.8285946 94.2717568,20.7429041 94.557,20.577 C94.8434211,20.408951 95.0911524,20.1823467 95.284,19.912 C95.484,19.634 95.639,19.306 95.744,18.927 C95.849,18.548 95.904,18.147 95.904,17.721 L95.903,17.721 Z M106.76,22.369 L105.2,22.369 L103.94,17.669 L103.665,16.579 L103.461,15.683 L103.257,16.588 L102.982,17.688 L101.74,22.372 L100.18,22.372 L97.625,13.058 L99.425,13.058 L100.525,17.582 L100.791,18.7 L100.986,19.623 L101.216,18.7 L101.5,17.582 L102.742,13.058 L104.215,13.058 L105.475,17.6 L105.75,18.71 L105.972,19.624 L106.176,18.694 L106.433,17.584 L107.533,13.06 L109.333,13.06 L106.76,22.369 Z"/>
  </g>
</svg>
